<?xml version="1.0" encoding="utf-8"?>
<!-- Generator: Adobe Illustrator 16.0.0, SVG Export Plug-In . SVG Version: 6.00 Build 0)  -->
<!DOCTYPE svg PUBLIC "-//W3C//DTD SVG 1.1//EN" "http://www.w3.org/Graphics/SVG/1.1/DTD/svg11.dtd">
<svg version="1.1" id="Layer_1" xmlns="http://www.w3.org/2000/svg" xmlns:xlink="http://www.w3.org/1999/xlink" x="0px" y="0px"
	 width="1280px" height="800px" viewBox="0 0 1280 800" enable-background="new 0 0 1280 800" xml:space="preserve">
<g id="C55kbm.tif">
	<g>
		<g>
			<path fill="#F6E5FE" d="M472.584,785.65C393.38,750.078,320.888,706.691,270.477,632.1
				c-36.282-53.688-52.43-113.628-66.039-175.164c-6.885-28.832-6.826-57.667-0.03-86.507c6.061-23.302-0.583-53.87,34.601-60.521
				c24.642,4.541,21.71,24.05,22.551,41.511c2.188,6.387,2.868,12.908,1.85,19.577c-5.93,25.165-6.648,50.355,0.072,75.534
				c20.304,121.049,80.272,212.629,194.939,264.226c16.705,7.52,34.897,14.087,44.438,32.089c4.611,16.979-1.66,30.66-12.977,42.809
				C484.119,785.65,478.35,785.65,472.584,785.65z"/>
			<path fill="#F6E4FE" d="M922.445,327.207c48.483-12,48.789-9.567,52.408,40.24c7.002,96.34-9.64,185.98-66.766,265.468
				c-35.568,49.49-78.376,91.222-133.805,118.988c-20.321,10.18-43.125,16.446-59.492,33.748c-11.535,0-23.065,0-34.601,0
				c-13.146-12.021-20.562-25.64-12.225-43.661c33.517-27.172,76.81-36.182,111.325-63.242
				c101.527-79.589,151.718-180.19,137.632-310.05C915.341,354.083,915.526,340.372,922.445,327.207z"/>
			<path fill="#FBF6FE" d="M541.795,24.438c-0.004-2.889-0.004-5.774-0.008-8.663c31.716,0,63.437,0,95.153,0
				c-0.005,2.889-0.005,5.774-0.009,8.663C605.219,43.661,573.507,43.661,541.795,24.438z"/>
			<path fill="#FCF8FE" d="M204.409,370.428c0.008,28.835,0.021,57.671,0.03,86.507c-2.889,0-5.774,0.005-8.663,0.005
				c0-28.837,0-57.667,0-86.502C198.652,370.433,201.532,370.433,204.409,370.428z"/>
			<path fill="#B600FE" d="M429.628,318.653c20.828-31.982,50.896-54.296,80.556-77.037c54.96-36.097,110.521-24.511,166.257-2.184
				c9.105,4.253,14.847,11.856,19.872,20.152c20.168,17.579,38.909,36.468,53.972,58.736c7.479,10.842,11.155,23.349,15.521,35.551
				l-0.093-0.249c10.069,33.516,4.893,67.407,2.518,101.176c1.889,21.034-11.525,38.449-13.964,58.504
				c-1.021,3.877-2.801,7.396-5.183,10.61c-21.74,16.705-40.54,36.907-62.604,53.32c-22.463,11.83-46.491,18.551-71.51,22.124
				c-25.925,1.188-51.689,0.104-77.223-4.781c-19.864-6.981-38.048-17.495-56.59-27.272c-18.205-13.297-33.195-30.002-48.7-46.204
				c-9.119-11.361-14.272-25.212-23.209-36.751c-5.956-9.899-8.034-20.802-8.596-32.135c0.135-25.818-2.125-51.689,1.884-77.409
				C413.696,357.132,416.636,335.46,429.628,318.653z"/>
			<path fill="#F6E4FE" d="M541.795,24.438c31.712,0,63.424,0,95.136,0c81.139,15.771,158.919,38.542,216.333,103.77
				c-4.029,35.349-18.322,45.836-46.293,33.084c-14.064-6.412-25.857-16.836-39.229-24.553
				c-96.703-60.505-197.583-75.753-304.255-28.189c-38.107,11.1-66.433,40.882-103.313,54.347
				c-24.05,16.764-29.752-9.199-37.604-19.484c-10.437-13.677,6.09-21.875,15.493-29.685
				C397.393,64.458,467.072,38.668,541.795,24.438z"/>
			<path fill="#E8B2FE" d="M420.497,205.866c-30.559,17.685-44.632,2.585-51.88-26.09c21.942-45.478,68.704-56.928,107.955-78.756
				c97.902-33.79,191.637-24.549,281.304,26.994c14.191,9.364,27.965,19.324,41.258,29.951
				c13.188,10.547,22.767,22.01,10.496,39.328c-5.72,5.647-11.442,11.29-17.166,16.933c-35.661,18.061-51.72-21.521-79.428-26.872
				c-27.092-15.835-56.235-26.547-86.507-34.373c-22.146-7.083-44.312-6.353-66.495-0.165
				C507.417,154.463,466.57,187.053,420.497,205.866z"/>
			<path fill="#E8B2FE" d="M879.295,336.017c9.529-0.028,19.611-1.752,25.74,8.502c18.517,28.194,20.418,59.971,15.704,91.457
				c-18.675,124.737-79.12,220.271-196.348,275.153c-51.237,23.987-58.569,20.935-73.991-33.642
				c9.137-20.342,29.808-23.108,47.111-30.994c26.2-6.345,42.689-26.433,61.245-43.59c2.918-2.652,6.082-4.983,9.317-7.214
				c38.352-28.3,53.131-71.542,71.39-112.603c13.729-32.388,12.739-66.528,9.74-100.167
				C846.958,357.761,854.831,342.417,879.295,336.017z"/>
			<path fill="#D366FE" d="M498.518,230.208c-10.161,7.417-21.033,14.053-30.326,22.441c-13.338,12.042-23.604,15.02-39.036,0.693
				c-16.282-15.113-11.357-25.588,0.554-38.086c26.183-38.821,68.015-49.241,109.497-60.354
				c34.994-2.614,70.081-8.308,104.593,3.286c24.145,4.878,47.285,12.486,68.244,25.812c18.162,11.189,39.331,18.563,50.188,39.167
				c3.027,12.422-2.722,20.68-12.812,26.859c-14.594,10.15-29.034,11.586-43.235-0.748c-7.125-4.705-16.539-1.047-23.491-6.399
				c-49.756-23.412-100.918-31.188-154.35-13.993C518.526,232.049,508.558,231.965,498.518,230.208z"/>
			<path fill="#D46AFE" d="M784.675,378.686c-1.602-18.453,14.39-19.214,25.263-25.122c25.236-12.688,32.953,2.829,37.977,23.323
				c8.794,35.868-0.271,70.866-4.714,106.051c-19.281,44.346-41.686,86.761-77.118,120.862l0.566-0.4
				c-23.94,11.891-39.708,36.826-67.637,42.41c-6.344,0.808-12.591,0.41-18.724-1.466c-15.86-6.589-28.442-17.034-37.182-31.947
				c2.138-32.507,40.016-22.679,51.838-43.737c18.843-16.506,39.771-30.829,54.432-51.75l-0.578,0.512
				c9.132-11.21,14.5-24.498,20.549-37.419c3.477-8.607,7.041-17.169,14.505-23.271c0.324-2.703,0.549-5.411,0.668-8.132
				C790.959,425.308,790.735,402.005,784.675,378.686z"/>
			<path fill="#FBF5FE" d="M654.591,673.801c14.763,51.505,14.411,50.132,63.185,28.729
				c123.197-54.061,178.269-154.944,194.382-281.722c3.146-24.729-4.47-50.824-7.121-76.29c5.804-5.77,11.606-11.538,17.41-17.312
				c19.188,90.499,8.498,175.835-40.968,255.719c-49.742,80.345-118.023,135.141-209.854,159.555
				c-16.92-23.22-27.687-48.503-26.057-77.926C653.324,663.005,657.066,665.37,654.591,673.801z"/>
			<path fill="#F4DDFE" d="M836.91,491.638c-8.414-37.987,10.678-75.593,0.473-114.261c-4.494-17.021-9.791-25.528-27.44-23.818
				c21.413-12.573,45.611-14.148,69.354-17.542c-13.494,10.392-21.085,19.704-19.298,41.145
				c3.193,38.212,11.328,79.335-15.366,114.399C842.102,495.803,839.523,495.828,836.91,491.638z"/>
			<path fill="#FBF4FE" d="M809.629,197.292c0.971-35.788-35.939-39.036-51.83-60.341c3.75-7.125,12.747-3.658,17.528-8.688
				c9.461,6.167,19.624,11.489,28.257,18.648c28.025,23.227,42.364,12.063,49.681-18.699c10.191,7.35,10.66,17.503,3.139,25.406
				C841.717,169.035,825.319,182.83,809.629,197.292z"/>
			<path fill="#F9EDFE" d="M756.929,224.269c-14.26-11.324-28.522-22.648-42.782-33.972c-3.281-3.945-3.008-7.632,0.812-11.058
				c31.353-0.553,44.332,39.594,77.51,34.994c-8.45,8.857-16.897,17.723-25.351,26.584
				C760.308,237.405,764.324,227.323,756.929,224.269z"/>
			<path fill="#EAB7FE" d="M783.852,456.729c1.086,10.04,0.869,19.684-8.098,26.67c-8-3.244-10.538-11.404-15.568-17.317
				c10.373-37.068,7.438-74.791,5.528-112.458c18.483,17.11,7.468,39.505,10.589,59.365
				C778.601,427.609,770.588,443.994,783.852,456.729z"/>
			<path fill="#EAB7FE" d="M784.675,378.686c12.417,23.332,12.211,46.635-0.155,69.908
				C784.573,425.295,784.624,401.988,784.675,378.686z"/>
			<path fill="#EAB7FE" d="M765.807,353.871c-9.654-9.893-14.538-21.871-15.521-35.551
				C765.405,325.83,768.709,338.492,765.807,353.871z"/>
			<path fill="#E8B2FE" d="M756.929,224.269c8.512,2.365,9.55,9.33,10.185,16.549c-5.094,4.612-5.64,17.98-17.693,9.208
				C751.919,241.438,754.424,232.852,756.929,224.269z"/>
			<path fill="#EDC2FE" d="M691.164,239.09c5.006,3.396,10.015,6.792,15.02,10.188c-3.289,3.434-6.58,6.872-9.869,10.306
				c-5.636-2.885-11.266-5.774-16.896-8.659C677.382,241.071,680.373,236.209,691.164,239.09z"/>
			<path fill="#E8B2FE" d="M515.726,673.294c-0.042,8.451-0.089,16.907-0.131,25.359c-8.549,29.79-26.956,26.171-49.776,16.604
				C371.59,675.752,311.017,605.692,276.88,510.895c-4.139-14.809-5.132-30.317-10.242-44.967c-0.862-4.6-1.352-9.199-1.597-13.866
				c-2.438-33.461-10.792-67.415,8.836-98.861c9.162-29.706,27.797-31.167,51.577-17.31c4.177,5.166,6.293,11.257,7.966,17.562
				c0.84,6.416,0.258,12.751-1.136,19.015c-6.065,23.983-6.213,48.025-0.389,72.075c1.702,5.673,3.029,11.446,4.422,17.183
				c11.691,32.362,17.309,67.271,40.219,94.879c32.422,40.775,67.395,78.236,118.522,96.022
				C504.829,656.027,511.971,663.267,515.726,673.294z"/>
			<path fill="#D367FE" d="M378.132,351.898c7.543-0.19,13.271,2.889,17.056,9.474c15.907,27.467,0.958,57.629,7.463,86.275
				c3.379,14.889,1.875,30.833,12.004,43.834c6.163,10.019,8.414,22.437,18.344,30.184c14.973,14.728,29.622,29.798,44.708,44.434
				c12.798,9.589,26.72,16.896,42.225,21.148c24.216,8.211,19.531,25.123,12.899,42.622l0.013-0.258
				c-6.353,22.492-18.64,28.249-41.798,20.127c-51.724-18.15-84.323-58.5-119.081-96.801c-17.964-28.93-26.407-61.612-36.992-93.473
				c-3.628-34.985-9.634-70.067,4.685-104.226C351.582,344.038,365.622,356.807,378.132,351.898z"/>
			<path fill="#F7E6FE" d="M714.957,179.239c-0.271,3.683-0.536,7.362-0.812,11.049c-23.514-4.393-43.086-22.297-68.556-20.003
				c-36.206-23.02-74.474-11.586-112.352-6.737c-37.359,11.527-70.602,31.307-103.529,51.704c-3.071-3.126-6.137-6.251-9.208-9.381
				c37.908-38.521,83.204-60.319,137.876-60.877c23.518-5.854,47.023-5.994,70.524,0.097
				C660.589,148.904,689.771,159.042,714.957,179.239z"/>
			<path fill="#EBBEFE" d="M691.164,239.09c-3.915,3.941-7.83,7.886-11.746,11.835c-55.229-24.586-111.862-23.674-169.234-9.313
				c-3.886-3.793-7.775-7.59-11.666-11.392C564.413,196.738,628.496,202.508,691.164,239.09z"/>
			<path fill="#FAF3FE" d="M472.977,111.047c-36.446,20.388-73.117,40.442-104.36,68.733c-0.08-6.999-1.571-13.288-8.443-16.883
				c25.376-30.111,58.33-48.358,95.039-60.729C462.392,102.607,469.015,104.166,472.977,111.047z"/>
			<path fill="#EEC6FE" d="M410.575,501.192c-24.097-44.52-23.657-91.736-15.387-139.82c21.284-6.34,12.278-37.093,34.44-42.719
				c-5.888,17.267-11.776,34.538-17.664,51.809c-7.028,28.874-7.603,57.728,0.304,86.55c1.782,9.49-1.533,20.516,8.295,27.59
				C426.575,495.752,425.544,502.666,410.575,501.192z"/>
			<path fill="#F4DBFE" d="M351.806,353.66c-19.425,35.999-5.753,74.4-8.11,111.639c-4.971,2.965-9.216,2.149-12.743-2.438
				c-11.045-36.041-0.274-73.126-5.191-109.463c-0.104-5.838-0.207-11.671-0.308-17.508c9.533,11.48,26.027-6.631,34.783,8.178
				C359.501,349.09,356.68,352.274,351.806,353.66z"/>
			<path fill="#FBF3FE" d="M273.877,353.2c-0.046,37.457-0.093,74.917-0.135,112.377c-23.568-14.434-15.058-38.339-17.271-58.989
				c-1.693-15.83,2.45-31.201,4.765-46.698c1.242-2.247,2.488-4.499,3.734-6.746C267.938,353.162,270.908,353.179,273.877,353.2z"/>
			<path fill="#FBF3FE" d="M256.314,353.132c3.012-17.921-3.197-32.155-17.305-43.226c35.611-1.774,23.615,25.039,25.959,43.238l0,0
				C262.08,357.145,259.195,356.959,256.314,353.132z"/>
			<path fill="#D05AFE" d="M351.806,353.66c2.809-3.198,5.622-6.392,8.431-9.588c5.964,2.609,11.924,5.225,17.892,7.831
				C370.099,363.586,361.368,364.887,351.806,353.66z"/>
			<path fill="#FBF6FE" d="M256.314,353.132c2.885,0.004,5.77,0.009,8.655,0.013c4.976,37.317-10.475,76.228,8.77,112.434
				c0.004,0-0.042-0.084-0.042-0.084c10.313,12.853-2.75,30.736,9.296,43.217c37.93,88.121,93.265,159.494,185.141,197.542
				c19.218,7.957,34.555,13.71,47.462-7.59c6.255,19.243-16.337,27.238-17.077,43.758c-71.812-33.537-143.48-67.589-186.521-139.274
				c-28.684-47.782-57.126-96.007-55.733-154.779c-6.538-26.001-6.555-51.999,0.009-77.996
				C256.289,364.621,256.302,358.876,256.314,353.132z"/>
			<path fill="#FBF3FE" d="M256.272,370.369c0,25.997-0.004,51.995-0.009,77.996C242.575,422.364,242.562,396.366,256.272,370.369z"
				/>
			<path fill="#F7E5FE" d="M379.002,549.474c34.04,33.969,64.387,71.895,111.453,90.635c18.914,7.53,31.885,7.916,42.39-10.491
				c4.479,18.546-9.405,29.904-17.119,43.673c-60.979-21.866-111.904-56.877-147.088-112.475
				C369.685,554.834,372.988,550.914,379.002,549.474z"/>
			<path fill="#F6E5FE" d="M697.673,569.479c-3.937,30.989-43.938,17.888-52.636,43.058c9.029,8.506,10.537,19.214,9.085,30.833
				c-0.896,4.528-2.72,8.65-5.39,12.418c-3.898,3.738-7.811,3.734-11.713,0c-0.25-11.393-0.498-22.778-0.743-34.166
				c-3.38-10.927-6.561-21.984-18.445-27.125c22.318-12.164,45.93-20.667,70.979-25.11
				C691.802,565.608,694.755,565.824,697.673,569.479z"/>
			<path fill="#F8EAFE" d="M617.831,594.495c17.47,1.339,20.05,12.811,18.45,27.121c-34.377-28.401-79.487-24.802-103.449,8.253
				c2.585-19.112,0.638-35.143-24.207-35.619c2.648-20.933,15.688-9.771,25.592-8.287
				C562.09,588.81,589.958,591.652,617.831,594.495z"/>
			<path fill="#FBF4FE" d="M637.02,655.786c2.914,0,5.829,0,8.744,0c14.049-14.069,32.412-11.087,49.646-12.587
				c7.468,0.756,12.24,3.789,10.454,12.367c-17.095,6.073-34.188,12.146-51.277,18.229c-3.002-3.08-6.01-6.159-9.018-9.242
				C642.718,661.632,639.871,658.709,637.02,655.786z"/>
			<path fill="#FCF8FE" d="M697.673,569.479c-2.952-0.033-5.909-0.063-8.861-0.094c14.312-24.277,35.75-40.319,60.564-52.477
				C742.36,544.481,724.857,561.74,697.673,569.479z"/>
			<path fill="#EFC9FE" d="M472.086,569.841c-18.148-10.825-32.823-25.131-43.521-43.425c1.123-5.719,4.545-9.283,10.137-10.816
				c14.243,14.932,28.489,29.866,42.736,44.798C483.274,568.447,480.808,572.24,472.086,569.841z"/>
			<path fill="#F5E0FE" d="M760.185,466.08c11.278,0.291,14.853,7.514,15.569,17.312c-4.565,14.848-5.635,32.46-26.956,34.027
				C734.939,496.39,760.379,484.077,760.185,466.08z"/>
			<path fill="#E9B5FE" d="M472.086,569.841c3.117-3.146,6.234-6.298,9.352-9.444c17.593,8.523,35.185,17.048,52.78,25.571
				c-8.667,2.36-19.451-1.804-25.601,8.286C494.223,589.443,479.549,585.038,472.086,569.841z"/>
			<path fill="#ECBEFE" d="M412.27,457.012c-14.062-28.802-13.647-57.653-0.305-86.55
				C412.066,399.311,412.167,428.163,412.27,457.012z"/>
			<path fill="#ECBEFE" d="M438.701,515.6c-3.375,3.604-6.75,7.21-10.133,10.812c-10.594-5.136-15.393-14.398-17.985-25.226
				c7.024-3.303,9.668-9.244,9.981-16.591C431.588,492.018,432.979,505.078,438.701,515.6z"/>
			<path fill="#FBF4FE" d="M472.977,111.047c-7.261-0.279-13.93-1.74-17.765-8.878c112.103-57.502,217.841-36.958,320.115,26.094
				c-3.793,7.024-10.36,8.452-17.524,8.684C666.691,86.156,571.526,79.998,472.977,111.047z"/>
			<path fill="#F5DEFE" d="M628.902,145.09c-23.506-0.03-47.006-0.059-70.517-0.093C581.904,132.655,605.414,132.58,628.902,145.09z
				"/>
			<path fill="#F6E5FE" d="M836.91,491.638c2.572-0.042,5.145-0.066,7.721-0.075c-17.85,43.242-28.012,91.866-78.55,112.233
				C784.379,563.058,811.369,527.806,836.91,491.638z"/>
			<path fill="#F5E2FE" d="M705.863,655.566c-2.919-2.876-5.833-5.754-8.752-8.63c-2.614-1.969-3.413-3.835-2.407-5.604
				c0.972-1.71,1.926-2.572,2.868-2.572c25.807-6.355,37.621-40.041,69.074-35.355C752.662,628.1,732.144,645.193,705.863,655.566z"
				/>
			<path fill="#F5DEFE" d="M533.238,163.548c38.263-11.256,76.572-23.277,112.352,6.741
				C608.911,155.215,570.778,164.338,533.238,163.548z"/>
			<path fill="#D05EFE" d="M646.854,645.569c-0.604-11.013-1.209-22.023-1.812-33.034c17.038,1.617,24.135,16.582,35.188,26.236
				C671.198,651.334,660.812,657.239,646.854,645.569z"/>
			<path fill="#ECBEFE" d="M646.854,645.569c12.343,3.712,23.003-0.824,33.371-6.802c5.782,0,11.564-0.004,17.349-0.009
				c-0.061,2.733-0.212,5.462-0.457,8.183c-17.076,3.201-33.08,12.607-51.353,8.845C646.127,652.378,646.49,648.974,646.854,645.569
				z"/>
			<path fill="#F7E8FE" d="M379.002,549.474c-3.455,3.78-6.91,7.558-10.365,11.342c-25.782-26.589-30.031-62.832-42.753-95.279
				c2.779-4.047,5.533-4.224,8.257,0.059c3.181-0.097,6.361-0.193,9.55-0.291C355.463,493.357,367.235,521.415,379.002,549.474z"/>
			<path fill="#F9EEFE" d="M334.142,465.594c-2.758-0.013-5.512-0.028-8.262-0.059c-0.274-5.605-0.553-11.21-0.832-16.815
				c-5.803-26.221-6.015-52.434,0.105-78.638c0.203-5.562,0.401-11.125,0.604-16.688
				C344.14,389.634,329.242,428.354,334.142,465.594z"/>
			<path fill="#F4DBFE" d="M325.153,370.082c-0.029,26.208-0.063,52.421-0.101,78.634
				C312.148,422.49,312.03,396.277,325.153,370.082z"/>
			<path fill="#FBF3FE" d="M282.992,508.71c-15.674-11.699-7.1-28.615-9.296-43.217C287.047,477.691,280.297,494.219,282.992,508.71
				z"/>
		</g>
	</g>
</g>
</svg>
